<svg t="1661883022508" class="icon" viewBox="0 0 1024 1024" version="1.1" xmlns="http://www.w3.org/2000/svg" p-id="6216" width="200" height="200"><path d="M885.152542 1024H138.770661A139.00105 139.00105 0 0 1 0 885.152542V138.770661A139.00105 139.00105 0 0 1 138.770661 0h746.381881a139.00105 139.00105 0 0 1 138.847458 138.770661v277.848508a32.023999 32.023999 0 1 1-63.971201 0V138.770661a74.876256 74.876256 0 0 0-74.953053-74.722663H138.770661a74.953052 74.953052 0 0 0-74.79946 74.722663v746.381881a74.876256 74.876256 0 0 0 74.79946 74.79946h746.381881a74.876256 74.876256 0 0 0 74.876257-74.79946v-276.466176a32.023999 32.023999 0 0 1 63.971201 0v276.466176a138.924254 138.924254 0 0 1-138.924254 138.847458" p-id="6217"></path><path d="M511.308835 577.967902a223.246438 223.246438 0 0 1-223.937604-222.094496V224.628769a32.023999 32.023999 0 0 1 63.971202 0v131.244637a160.043198 160.043198 0 0 0 320.009599 0V224.628769a32.023999 32.023999 0 0 1 63.971202 0v131.244637a223.246438 223.246438 0 0 1-224.014399 222.017699" p-id="6218"></path></svg>